<svg width="22" height="19" viewBox="0 0 22 19" fill="none" xmlns="http://www.w3.org/2000/svg">
<path d="M19.8401 2.10999C19.3294 1.599 18.7229 1.19364 18.0555 0.917078C17.388 0.640516 16.6726 0.498169 15.9501 0.498169C15.2276 0.498169 14.5122 0.640516 13.8448 0.917078C13.1773 1.19364 12.5709 1.599 12.0601 2.10999L11.0001 3.16999L9.94012 2.10999C8.90843 1.0783 7.50915 0.498704 6.05012 0.498704C4.59109 0.498704 3.19181 1.0783 2.16012 2.10999C1.12843 3.14169 0.548828 4.54096 0.548828 5.99999C0.548828 7.45903 1.12843 8.8583 2.16012 9.88999L3.22012 10.95L11.0001 18.73L18.7801 10.95L19.8401 9.88999C20.3511 9.37924 20.7565 8.77281 21.033 8.10535C21.3096 7.43789 21.4519 6.72248 21.4519 5.99999C21.4519 5.27751 21.3096 4.5621 21.033 3.89464C20.7565 3.22718 20.3511 2.62075 19.8401 2.10999Z" fill="#EC0344"/>
</svg>
